<svg width="1024" height="1024" viewBox="0 0 1024 1024" fill="none" xmlns="http://www.w3.org/2000/svg">
  <defs>
    <linearGradient id="bg" x1="144" y1="112" x2="876" y2="912" gradientUnits="userSpaceOnUse">
      <stop stop-color="#FAF7F1"/>
      <stop offset="1" stop-color="#E9E2D8"/>
    </linearGradient>
    <linearGradient id="tileA" x1="258" y1="292" x2="714" y2="560" gradientUnits="userSpaceOnUse">
      <stop stop-color="#202935"/>
      <stop offset="1" stop-color="#10161F"/>
    </linearGradient>
    <linearGradient id="tileB" x1="316" y1="478" x2="786" y2="742" gradientUnits="userSpaceOnUse">
      <stop stop-color="#D97706"/>
      <stop offset="1" stop-color="#A63C00"/>
    </linearGradient>
  </defs>
  <rect x="48" y="48" width="928" height="928" rx="208" fill="url(#bg)"/>
  <rect x="228" y="254" width="492" height="252" rx="88" fill="url(#tileA)"/>
  <rect x="304" y="440" width="492" height="252" rx="88" fill="url(#tileB)"/>
  <rect x="294" y="334" width="202" height="28" rx="14" fill="#F5EDE1"/>
  <rect x="294" y="390" width="286" height="28" rx="14" fill="#F5EDE1" fill-opacity="0.76"/>
  <rect x="370" y="520" width="182" height="28" rx="14" fill="#FFF3E2"/>
  <rect x="370" y="576" width="264" height="28" rx="14" fill="#FFF3E2" fill-opacity="0.74"/>
  <circle cx="706" cy="664" r="76" fill="#10161F"/>
  <rect x="686" y="626" width="40" height="74" rx="20" fill="#FFF3E2"/>
  <path d="M661 688C661 729.421 694.579 763 736 763C777.421 763 811 729.421 811 688" stroke="#FFF3E2" stroke-width="24" stroke-linecap="round"/>
  <path d="M736 760V814" stroke="#FFF3E2" stroke-width="24" stroke-linecap="round"/>
  <path d="M695 814H777" stroke="#FFF3E2" stroke-width="24" stroke-linecap="round"/>
</svg>
