<svg width="1024" height="1024" viewBox="0 0 1024 1024" fill="none" xmlns="http://www.w3.org/2000/svg">
  <defs>
    <linearGradient id="bg" x1="160" y1="120" x2="864" y2="904" gradientUnits="userSpaceOnUse">
      <stop stop-color="#152334"/>
      <stop offset="1" stop-color="#0A1018"/>
    </linearGradient>
    <radialGradient id="orb" cx="0" cy="0" r="1" gradientUnits="userSpaceOnUse" gradientTransform="translate(512 552) rotate(90) scale(294)">
      <stop stop-color="#FFF7E8"/>
      <stop offset="0.28" stop-color="#FFC66D"/>
      <stop offset="0.62" stop-color="#F08B2C"/>
      <stop offset="1" stop-color="#B44A00"/>
    </radialGradient>
    <filter id="blur" x="112" y="160" width="800" height="768" filterUnits="userSpaceOnUse" color-interpolation-filters="sRGB">
      <feGaussianBlur stdDeviation="44"/>
    </filter>
  </defs>
  <rect x="48" y="48" width="928" height="928" rx="208" fill="url(#bg)"/>
  <g opacity="0.34" filter="url(#blur)">
    <circle cx="512" cy="552" r="220" fill="#FF9A3D"/>
  </g>
  <path d="M512 262C658.355 262 777 380.645 777 527C777 673.355 658.355 792 512 792C365.645 792 247 673.355 247 527C247 380.645 365.645 262 512 262Z" fill="url(#orb)"/>
  <path d="M389 523C417.333 495.667 445.667 495.667 474 523C502.333 550.333 530.667 550.333 559 523C587.333 495.667 615.667 495.667 644 523" stroke="#1F1210" stroke-width="42" stroke-linecap="round"/>
  <path d="M317 523C365 468.333 413 468.333 461 523C509 577.667 557 577.667 605 523C653 468.333 701 468.333 749 523" stroke="#FFF6E9" stroke-opacity="0.3" stroke-width="18" stroke-linecap="round"/>
  <circle cx="512" cy="552" r="306" stroke="#FFE0AE" stroke-opacity="0.16" stroke-width="18"/>
</svg>
